{
  "accessors": [
    {
      "bufferView": 2,
      "componentType": 5126,
      "count": 3005,
      "max": [
        132.0366668701172,
        106.46400451660156,
        320.0503234863281
      ],
      "min": [
        -132.03663635253906,
        -106.46400451660156,
        -0.016644224524497986
      ],
      "type": "VEC3"
    },
    {
      "bufferView": 2,
      "byteOffset": 36060,
      "componentType": 5126,
      "count": 3005,
      "max": [
        1.0,
        1.0,
        1.0
      ],
      "min": [
        -1.0,
        -1.0,
        -1.0
      ],
      "type": "VEC3"
    },
    {
      "bufferView": 3,
      "componentType": 5126,
      "count": 3005,
      "max": [
        1.0,
        1.0,
        1.0,
        1.0
      ],
      "min": [
        -1.0,
        -1.0,
        -1.0,
        -1.0
      ],
      "type": "VEC4"
    },
    {
      "bufferView": 1,
      "componentType": 5126,
      "count": 3005,
      "max": [
        0.9919388294219971,
        0.9757654070854187
      ],
      "min": [
        0.007809937000274658,
        0.007814294658601284
      ],
      "type": "VEC2"
    },
    {
      "bufferView": 0,
      "componentType": 5125,
      "count": 8148,
      "type": "SCALAR"
    },
    {
      "bufferView": 2,
      "byteOffset": 72120,
      "componentType": 5126,
      "count": 380,
      "max": [
        25.892745971679688,
        14.54322338104248,
        21.655168533325195
      ],
      "min": [
        -25.892745971679688,
        -14.543258666992188,
        0.0
      ],
      "type": "VEC3"
    },
    {
      "bufferView": 2,
      "byteOffset": 76680,
      "componentType": 5126,
      "count": 380,
      "max": [
        1.0,
        1.0,
        1.0
      ],
      "min": [
        -1.0,
        -1.0,
        -1.0
      ],
      "type": "VEC3"
    },
    {
      "bufferView": 3,
      "byteOffset": 48080,
      "componentType": 5126,
      "count": 380,
      "max": [
        1.0,
        1.0,
        1.0,
        1.0
      ],
      "min": [
        -1.0,
        -1.0,
        -1.0,
        -1.0
      ],
      "type": "VEC4"
    },
    {
      "bufferView": 1,
      "byteOffset": 24040,
      "componentType": 5126,
      "count": 380,
      "max": [
        0.990977942943573,
        0.8852668404579163
      ],
      "min": [
        0.0078108906745910645,
        0.007808685302734375
      ],
      "type": "VEC2"
    },
    {
      "bufferView": 0,
      "byteOffset": 32592,
      "componentType": 5125,
      "count": 642,
      "type": "SCALAR"
    },
    {
      "bufferView": 2,
      "byteOffset": 81240,
      "componentType": 5126,
      "count": 106,
      "max": [
        14.412297248840332,
        3.6712329387664795,
        158.7964324951172
      ],
      "min": [
        -14.409197807312012,
        -3.6712403297424316,
        0.0
      ],
      "type": "VEC3"
    },
    {
      "bufferView": 2,
      "byteOffset": 82512,
      "componentType": 5126,
      "count": 106,
      "max": [
        1.0,
        1.0,
        1.0
      ],
      "min": [
        -1.0,
        -1.0,
        -1.0
      ],
      "type": "VEC3"
    },
    {
      "bufferView": 3,
      "byteOffset": 54160,
      "componentType": 5126,
      "count": 106,
      "max": [
        1.0,
        1.0,
        0.0001412810815963894,
        1.0
      ],
      "min": [
        -1.0,
        -1.0,
        -1.0,
        1.0
      ],
      "type": "VEC4"
    },
    {
      "bufferView": 1,
      "byteOffset": 27080,
      "componentType": 5126,
      "count": 106,
      "max": [
        0.9877676367759705,
        0.985693097114563
      ],
      "min": [
        0.0078144371509552,
        0.007808752357959747
      ],
      "type": "VEC2"
    },
    {
      "bufferView": 0,
      "byteOffset": 35160,
      "componentType": 5125,
      "count": 186,
      "type": "SCALAR"
    },
    {
      "bufferView": 2,
      "byteOffset": 83784,
      "componentType": 5126,
      "count": 246,
      "max": [
        107.97348022460938,
        102.06400299072266,
        34.84670639038086
      ],
      "min": [
        -93.2259521484375,
        -99.3067626953125,
        -0.3005562722682953
      ],
      "type": "VEC3"
    },
    {
      "bufferView": 2,
      "byteOffset": 86736,
      "componentType": 5126,
      "count": 246,
      "max": [
        0.9999338388442993,
        0.9999591708183289,
        0.9999997615814209
      ],
      "min": [
        -0.9765686392784119,
        -0.9779133796691895,
        -0.9999990463256836
      ],
      "type": "VEC3"
    },
    {
      "bufferView": 3,
      "byteOffset": 55856,
      "componentType": 5126,
      "count": 246,
      "max": [
        0.9999961853027344,
        0.9999967217445374,
        0.9593395590782166,
        1.0
      ],
      "min": [
        -0.9999936819076538,
        -0.9999175071716309,
        -0.9606049656867981,
        1.0
      ],
      "type": "VEC4"
    },
    {
      "bufferView": 1,
      "byteOffset": 27928,
      "componentType": 5126,
      "count": 246,
      "max": [
        0.9921119213104248,
        0.7508929371833801
      ],
      "min": [
        0.007827963680028915,
        0.007808310445398092
      ],
      "type": "VEC2"
    },
    {
      "bufferView": 0,
      "byteOffset": 35904,
      "componentType": 5125,
      "count": 1032,
      "type": "SCALAR"
    }
  ],
  "asset": {
    "extras": {
      "author": "Dmitriy Baturinets (https://sketchfab.com/Baturinets)",
      "license": "CC-BY-4.0 (http://creativecommons.org/licenses/by/4.0/)",
      "source": "https://sketchfab.com/3d-models/stylized-japanese-altar-3ba16c9d27c44086a991381f7c73587e",
      "title": "Stylized Japanese altar"
    },
    "generator": "Sketchfab-13.76.0",
    "version": "2.0"
  },
  "bufferViews": [
    {
      "buffer": 0,
      "byteLength": 40032,
      "name": "floatBufferViews",
      "target": 34963
    },
    {
      "buffer": 0,
      "byteLength": 29896,
      "byteOffset": 40032,
      "byteStride": 8,
      "name": "floatBufferViews",
      "target": 34962
    },
    {
      "buffer": 0,
      "byteLength": 89688,
      "byteOffset": 69928,
      "byteStride": 12,
      "name": "floatBufferViews",
      "target": 34962
    },
    {
      "buffer": 0,
      "byteLength": 59792,
      "byteOffset": 159616,
      "byteStride": 16,
      "name": "floatBufferViews",
      "target": 34962
    }
  ],
  "buffers": [
    {
      "byteLength": 219408,
      "uri": "scene.bin"
    }
  ],
  "images": [
    {
      "uri": "textures/Altars_baseColor.png"
    },
    {
      "uri": "textures/Altars_metallicRoughness.png"
    },
    {
      "uri": "textures/Altars_normal.png"
    },
    {
      "uri": "textures/material_baseColor.png"
    },
    {
      "uri": "textures/material_metallicRoughness.png"
    },
    {
      "uri": "textures/material_normal.png"
    },
    {
      "uri": "textures/Sign_baseColor.png"
    },
    {
      "uri": "textures/Sign_metallicRoughness.png"
    },
    {
      "uri": "textures/Sign_normal.png"
    },
    {
      "uri": "textures/Stone_Slab_baseColor.png"
    },
    {
      "uri": "textures/Stone_Slab_metallicRoughness.png"
    },
    {
      "uri": "textures/Stone_Slab_normal.png"
    }
  ],
  "materials": [
    {
      "doubleSided": true,
      "name": "Altars",
      "normalTexture": {
        "index": 2
      },
      "occlusionTexture": {
        "index": 1
      },
      "pbrMetallicRoughness": {
        "baseColorTexture": {
          "index": 0
        },
        "metallicRoughnessTexture": {
          "index": 1
        }
      }
    },
    {
      "doubleSided": true,
      "name": "material",
      "normalTexture": {
        "index": 5
      },
      "occlusionTexture": {
        "index": 4
      },
      "pbrMetallicRoughness": {
        "baseColorTexture": {
          "index": 3
        },
        "metallicRoughnessTexture": {
          "index": 4
        }
      }
    },
    {
      "doubleSided": true,
      "name": "Sign",
      "normalTexture": {
        "index": 8
      },
      "occlusionTexture": {
        "index": 7
      },
      "pbrMetallicRoughness": {
        "baseColorTexture": {
          "index": 6
        },
        "metallicRoughnessTexture": {
          "index": 7
        }
      }
    },
    {
      "doubleSided": true,
      "name": "Stone_Slab",
      "normalTexture": {
        "index": 11
      },
      "occlusionTexture": {
        "index": 10
      },
      "pbrMetallicRoughness": {
        "baseColorTexture": {
          "index": 9
        },
        "metallicRoughnessTexture": {
          "index": 10
        }
      }
    }
  ],
  "meshes": [
    {
      "name": "SM_Altars_Altars_0",
      "primitives": [
        {
          "attributes": {
            "NORMAL": 1,
            "POSITION": 0,
            "TANGENT": 2,
            "TEXCOORD_0": 3
          },
          "indices": 4,
          "material": 0,
          "mode": 4
        }
      ]
    },
    {
      "name": "SM_box_Box_0",
      "primitives": [
        {
          "attributes": {
            "NORMAL": 6,
            "POSITION": 5,
            "TANGENT": 7,
            "TEXCOORD_0": 8
          },
          "indices": 9,
          "material": 1,
          "mode": 4
        }
      ]
    },
    {
      "name": "SM_Sign_Sign_0",
      "primitives": [
        {
          "attributes": {
            "NORMAL": 11,
            "POSITION": 10,
            "TANGENT": 12,
            "TEXCOORD_0": 13
          },
          "indices": 14,
          "material": 2,
          "mode": 4
        }
      ]
    },
    {
      "name": "SM_Stone_slab_Stone_Slab_0",
      "primitives": [
        {
          "attributes": {
            "NORMAL": 16,
            "POSITION": 15,
            "TANGENT": 17,
            "TEXCOORD_0": 18
          },
          "indices": 19,
          "material": 3,
          "mode": 4
        }
      ]
    }
  ],
  "nodes": [
    {
      "children": [
        1
      ],
      "matrix": [
        0.9999730587005615,
        0.007338694762438536,
        3.404159620035135e-16,
        0.0,
        -3.3878808555065773e-16,
        -2.230630671251293e-16,
        1.0,
        0.0,
        0.007338694762438536,
        -0.9999730587005615,
        -2.205707951005642e-16,
        0.0,
        0.0,
        0.0,
        0.0,
        1.0
      ],
      "name": "Sketchfab_model"
    },
    {
      "children": [
        2
      ],
      "matrix": [
        0.009999999776482582,
        0.0,
        0.0,
        0.0,
        0.0,
        -0.009999999776482582,
        0.0,
        0.0,
        0.0,
        0.0,
        -0.009999999776482582,
        0.0,
        0.0,
        0.0,
        0.0,
        1.0
      ],
      "name": "15a2a54eb5e64f67829c64f8636c6681.fbx"
    },
    {
      "children": [
        3,
        5,
        7,
        9
      ],
      "name": "RootNode"
    },
    {
      "children": [
        4
      ],
      "matrix": [
        1.0,
        0.0,
        0.0,
        0.0,
        0.0,
        1.0,
        0.0,
        0.0,
        0.0,
        0.0,
        1.0,
        0.0,
        4.226281642913818,
        19.48685073852539,
        33.38093948364258,
        1.0
      ],
      "name": "SM_Altars"
    },
    {
      "mesh": 0,
      "name": "SM_Altars_Altars_0"
    },
    {
      "children": [
        6
      ],
      "matrix": [
        1.0,
        0.0,
        0.0,
        0.0,
        0.0,
        1.0,
        0.0,
        0.0,
        0.0,
        0.0,
        1.0,
        0.0,
        3.9628498554229736,
        -58.267032623291016,
        90.35247039794922,
        1.0
      ],
      "name": "SM_box"
    },
    {
      "mesh": 1,
      "name": "SM_box_Box_0"
    },
    {
      "children": [
        8
      ],
      "matrix": [
        1.0,
        0.0,
        0.0,
        0.0,
        0.0,
        1.0,
        0.0,
        0.0,
        0.0,
        0.0,
        1.0,
        0.0,
        172.40928649902344,
        -99.34153747558594,
        0.0,
        1.0
      ],
      "name": "SM_Sign"
    },
    {
      "mesh": 2,
      "name": "SM_Sign_Sign_0"
    },
    {
      "children": [
        10
      ],
      "name": "SM_Stone_slab"
    },
    {
      "mesh": 3,
      "name": "SM_Stone_slab_Stone_Slab_0"
    }
  ],
  "samplers": [
    {
      "magFilter": 9729,
      "minFilter": 9987,
      "wrapS": 10497,
      "wrapT": 10497
    }
  ],
  "scene": 0,
  "scenes": [
    {
      "name": "Sketchfab_Scene",
      "nodes": [
        0
      ]
    }
  ],
  "textures": [
    {
      "sampler": 0,
      "source": 0
    },
    {
      "sampler": 0,
      "source": 1
    },
    {
      "sampler": 0,
      "source": 2
    },
    {
      "sampler": 0,
      "source": 3
    },
    {
      "sampler": 0,
      "source": 4
    },
    {
      "sampler": 0,
      "source": 5
    },
    {
      "sampler": 0,
      "source": 6
    },
    {
      "sampler": 0,
      "source": 7
    },
    {
      "sampler": 0,
      "source": 8
    },
    {
      "sampler": 0,
      "source": 9
    },
    {
      "sampler": 0,
      "source": 10
    },
    {
      "sampler": 0,
      "source": 11
    }
  ]
}
